<svg xmlns="http://www.w3.org/2000/svg" width="561.333" height="138.667" version="1.0" viewBox="0 0 421 104"><path d="M223.7 31.8c-9.2 9.8-17.8 18.9-19.2 20.2l-2.5 2.4-6-5.9c-3.6-3.6-6.3-5.5-6.8-5-6 6.9-13.2 15.7-13.1 16.3 0 .9 26.1 21.1 27.3 21.3.8.1 7-10.9 33.2-58.9 2.5-4.5 4.4-8.2 4.2-8.2-.2 0-7.8 8-17.1 17.8zm4 2.9c-.2.5-5.7 10.5-12.2 22.3-6.5 11.8-11.9 21.6-12 21.8-.2.2-13.7-10.7-15.5-12.5-.3-.3 2.4 1 6 2.8 3.6 1.9 6.8 3.5 7.1 3.7.4.1 6.4-8.5 13.4-19.3 7-10.7 13-19.5 13.2-19.5.2 0 .2.3 0 .7z" fill="#63d7bc"/><path d="M163 58v41h82V58c0-22.6-.2-41-.4-41s-2.3 3.4-4.5 7.5l-4.1 7.4V90h-64V26l26.6-.2 26.6-.3 3.6-4.3 3.5-4.2H163v41zM41 19.9c-4.4.9-11 4.3-13.2 6.8-2.6 2.9-4.8 8.8-4.8 13.1C23 51 28 54.7 53.3 62 62.7 64.8 66 67.5 66 72.6c0 2.7-.8 4.4-3.3 6.9-2.8 2.8-4.2 3.4-10 4-7.6.8-11.3.3-21.1-2.7-6.7-2.1-6.9-2.1-8.2-.3-2.9 3.9-1.4 5.9 6.2 8.6C37 91.8 53 92.8 59.4 91c5.1-1.4 11.9-6.8 14.1-11.1 2.1-3.9 1.9-11.7-.4-15.9-2.6-5-8.9-8.4-23.1-12.5-13.8-4-18-6.7-18-11.6 0-4.7 2.1-7.8 6.8-10 5.4-2.7 15.7-2.9 24.3-.6 6.4 1.6 8.9.9 8.9-2.7 0-3.3-1.5-4.2-10.2-6-8-1.7-14.8-1.9-20.8-.7zM120 19.9c-4.4.9-11 4.3-13.2 6.8-4.3 4.7-6 13.7-3.7 20.1 1.7 5 9.7 9.6 24.2 13.8 14.6 4.2 17.7 6.3 17.7 12 0 2.7-.8 4.4-3.3 6.9-2.8 2.8-4.2 3.4-10 4-7.6.8-11.3.3-21.1-2.7-6.7-2.1-6.9-2.1-8.2-.3-2.9 3.9-1.4 5.9 6.2 8.6 7.4 2.7 23.4 3.7 29.8 1.9 5.1-1.4 11.9-6.8 14.1-11.1 2-3.7 1.9-11.3-.2-15.6-2.4-5.1-7.7-8.1-22.5-12.5-14.6-4.3-18.8-7-18.8-11.9 0-4.7 2.1-7.8 6.8-10 5.4-2.7 15.7-2.9 24.3-.6 6.4 1.6 8.9.9 8.9-2.7 0-3.3-1.5-4.2-10.2-6-8-1.7-14.8-1.9-20.8-.7zM84 22.6c-.6 1.4-1 15.9-1 33.7 0 26.7.2 31.6 1.6 33.5 1.9 2.8 4.9 2.8 6.8 0C92.8 87.9 93 83 93 56.3c0-17.8-.4-32.3-1-33.7-.7-2-1.6-2.6-4-2.6s-3.3.6-4 2.6zM253 22.5c-.6 1.5-1 15.5-1 33.8 0 26.7.2 31.6 1.6 33.5 1.7 2.5 4.6 2.9 6.3.8.8-.9 1.1-11.2.9-35.7l-.3-34.4-3.3-.3c-2.7-.3-3.4.1-4.2 2.3zM271.2 21.2c-1.7 1.7-1.5 4.4.4 6.2 1.2 1.3 3.9 1.6 12.5 1.6H295v29.9c0 25.9.2 30.2 1.6 31.5 1.8 1.9 4.5 2.1 6.2.4.9-.9 1.2-9.3 1.2-31.5V29h10.6c5.8 0 11.4-.5 12.5-1 2.1-1.2 2.5-5 .7-6.8-1.7-1.7-54.9-1.7-56.6 0zM365.6 22.2c-2.9 4.7-27.7 64.8-27.4 66.4.5 2.7 3.3 4 6 2.7 1.6-.7 3.3-3.6 5.7-9.7l3.4-8.6h35.2l3.5 8.6c1.9 4.7 4.2 9 5.2 9.5 2.5 1.3 5.5.3 6.3-2.1.4-1.2-4.3-13.5-13-34.2-7.6-17.8-14.2-32.9-14.7-33.6-.6-.6-2.8-1.2-4.9-1.2-2.9 0-4.2.5-5.3 2.2zm12.6 26.1 6.6 16.2-6.9.3c-3.8.2-10 .2-13.8 0l-6.9-.3 6.6-16.3c3.6-8.9 6.9-16.2 7.2-16.2.3 0 3.5 7.3 7.2 16.3z" fill="#63d7bc"/></svg>